<svg width="17" height="17" viewBox="0 0 17 17" fill="none" xmlns="http://www.w3.org/2000/svg">
<g clip-path="url(#clip0_14_1470)">
<path fill-rule="evenodd" clip-rule="evenodd" d="M11.8963 5.54097L8.21366 11.9212C8.18656 12.0009 8.14673 12.0753 8.08191 12.1337C7.86782 12.3356 7.53152 12.325 7.33124 12.1125L4.90237 9.8706C4.70156 9.6581 4.71271 9.31815 4.92681 9.12159C5.1409 8.91971 5.47718 8.93029 5.67799 9.14279L7.57881 10.8959L10.9762 5.00972C11.1228 4.76003 11.4474 4.66966 11.7018 4.81841C11.9558 4.96185 12.0429 5.29128 11.8963 5.54097ZM14.875 0H2.125C0.951469 0 0 0.950938 0 2.125V14.875C0 16.0491 0.951469 17 2.125 17H14.875C16.0485 17 17 16.0491 17 14.875V2.125C17 0.950938 16.0485 0 14.875 0Z" fill="black"/>
</g>
<defs>
<clipPath id="clip0_14_1470">
<rect width="17" height="17" fill="white"/>
</clipPath>
</defs>
</svg>
